<svg xmlns="http://www.w3.org/2000/svg" viewBox="0 0 64 64">
  <defs>
    <linearGradient id="g" x1="0" y1="0" x2="1" y2="1">
      <stop offset="0%" stop-color="#f05a3b"/>
      <stop offset="100%" stop-color="#8c2f1c"/>
    </linearGradient>
  </defs>
  <rect width="64" height="64" rx="16" fill="#170f09"/>
  <path d="M42.5 15.5c-3.2-2.3-7-3.5-11.3-3.5-8.5 0-14.2 4.2-14.2 10.3 0 5.1 3.9 8.1 11.2 10.3l4.1 1.2c4.4 1.3 6.2 2.7 6.2 5.4 0 3.1-3 5.3-7.6 5.3-4.6 0-8.8-1.7-12.3-5l-4.6 5.8c4.4 4.2 10.2 6.5 16.7 6.5 9.9 0 16.4-4.9 16.4-12.2 0-5.8-3.5-9-11.3-11.2l-4-1.1c-4.3-1.2-6-2.4-6-4.8 0-2.7 2.7-4.6 6.8-4.6 3.8 0 6.9 1.1 9.7 3.4z" fill="url(#g)"/>
  <path d="M43 11l6 8-5.2 1.1-3.4-4.8z" fill="#d8a45d"/>
</svg>
